<svg xmlns="http://www.w3.org/2000/svg" xmlns:xlink="http://www.w3.org/1999/xlink" version="1.1" x="0px" y="0px" viewBox="-2897 -3072.642 5922 6273.289" enable-background="new -2897 -3072.642 5922 6273.289" xml:space="preserve" style="display: inline; opacity: 1;">
<g>
	<g>
		<g>
			<g>
				<path fill="#2F2F2F" d="M1810,3180.391c-670,0-1215.5-545-1215.5-1215s545.5-1215,1215.5-1215s1215,545,1215,1215      S2480,3180.391,1810,3180.391z M1810,1123.391c-464,0-841.5,377.5-841.5,841.5s377.5,841.5,841.5,841.5s841.5-377.5,841.5-841.5      C2651.5,1501.391,2274,1123.391,1810,1123.391z"></path>
				<path fill="#2F2F2F" d="M-1681.5,3180.391c-670,0-1215.5-545-1215.5-1215s545.5-1215,1215.5-1215s1215,545,1215,1215      S-1011.5,3180.391-1681.5,3180.391z M-1681.5,1123.391c-464,0-842,377.5-842,841.5s378.5,841.5,842,841.5      c464,0,841.5-377.5,841.5-841.5C-840,1501.391-1217.5,1123.391-1681.5,1123.391z"></path>
				<path fill="#FCC21B" d="M749,654.891c-7,0-13.5-0.5-20.5-1.5l-1896.5-274c-78.5-11.5-132.5-83.5-121-161.5      c11-78,85.5-132.5,162-121l1896.5,274c78,11.5,132.5,84,121,162C880,603.391,819,654.891,749,654.891z"></path>
				<path fill="#FCC21B" d="M87,2071.391c-45,0-88.5-21.5-115.5-58.5l-1234.5-1691c-46.5-63.5-32.5-153,31-199.5s153-32.5,199.5,31      L59,1647.891l783.5-1705c32.5-71.5,118-103,189.5-70s103.5,117.5,70,189.5l-885.5,1926.5c-21,46-65,77.5-116,82.5      C96,2071.391,91.5,2071.391,87,2071.391z"></path>
				<path fill="#FCC21B" d="M1801,2071.391H87c-78.5,0-142.5-64-142.5-143s64-142.5,142.5-142.5h1430l-883-1189      c-47-63.5-34-153,29.5-200s153-34,200,29.5l1052,1417c32.5,43.5,37.5,101,13,149.5C1904.5,2040.891,1855,2071.391,1801,2071.391      z"></path>
				<path fill="#2F2F2F" d="M1316.5-287.109c-60-34-127-26-196-29c-83.5-4-167.5-8-251.5-13c-139.5-9-281,2-419-5.5      c-80-4.5-156.5,55-184,126.5c-37.5,97.5,28.5,159,111,203.5c102,55,215.5,81,327,108.5c121,29.5,242,67.5,366,84.5      c120.5,16.5,256.5-31,326.5-133.5c73-106,42.5-248-59-327C1331-278.109,1323.5-282.609,1316.5-287.109z"></path>
				<path fill="#2F2F2F" d="M158.5,1908.391c-12.5,4.5-25,9-37.5,12.5c-49.5,15-103,25-150,45.5c-87,38.5-181,141.5-138,242.5      c53.5,125.5,144.5,76.5,243.5,42c98.5-34,274-67,332-164.5c43-72.5-16-193.5-99-207C259,1870.891,207.5,1890.891,158.5,1908.391      z"></path>
			</g>
		</g>
	</g>
	<path fill="#ED6C30" d="M-2470,3061.391c65-36.5,136-59.5,201-96.5c82-46.5,171-107.5,270.5-95.5c77.5,9,156.5,44.5,232,65   c87.5,23.5,175,52,264,69c115,22,255-35,363.5-67.5c136.5-41,271-91.5,413-113c81-12.5,134.5,19.5,209.5,42.5   c129.5,39.5,262,61.5,392.5,95c190.5,48.5,355,11,540-54c64-22.5,138.5-50,200-62.5c104-21,224,29,325,52.5   c76,17.5,150,30,226.5,36.5c42,4,82.5,13.5,124.5,15.5c41,2,75.5-12.5,113.5-25c106.5-36,208-87.5,310-136c65-30.5,108.5-15,169,12   c71,31.5,146.5,51.5,220,78c67,24,133.5,65,205,73.5c73.5,9,134.5-50,201-70c78.5-23.5,151.5,17,218,58   c60,37,129.5,59.5,184.5,103.5c93.5,74.5,13,84.5-71,94.5c-57.5,7-1475.5,50.5-2608.5,61.5c-510,5-2375,4-2611.5-27.5   c-42-5.5-89-4-127.5-23C-2568,3117.391-2506.5,3081.891-2470,3061.391z"></path>
	<path fill="#FCC21B" d="M-1654.5,2128.391c-12.5,0-24.5-1.5-37-5c-76-20-121.5-98.5-101.5-174.5l560-2120   c20.5-76,99-122,174.5-101.5c77,20,122,98.5,102,174.5l-560,2120C-1533.5,2086.391-1591.5,2128.391-1654.5,2128.391z"></path>
	<path fill="#2F2F2F" d="M-1054.5-18.109c-11,0-22-1.5-33.5-4l-445-106.5c-77-18.5-124-95.5-105.5-172.5   c18.5-76.5,95.5-123.5,172.5-105.5l445,106.5c76.5,18.5,124,95.5,105.5,172.5C-931.5-62.109-990-18.109-1054.5-18.109z"></path>
	<circle fill="#2F2F2F" cx="-1521.5" cy="-267.609" r="200"></circle>
	<path fill="#ED6C30" d="M-1162-1599.609c-9-14.5-18-29-25.5-44c-234.5-440.5-85-905.5,262-1085c496.5-257.5,956.5-17,1090,304   c37,88.5,64,181.5,71,277c5.5,69-23,149,10.5,214c36,70,137.5,115,208,142.5c354.5,138.5,695.5,427.5,853.5,777   c115,253.5,123,558-14.5,802.5c-87,155-244.5,279-377,394.5c-65,56.5-123.5,110-184,173c-206,213.5-313,470.5-336.5,764.5   c-13,160,11,320,1.5,480c-8.5,143-69,242-190.5,314c-188,111.5-491,270.5-638,8.5c-84.5-150,6.5-340,113.5-452   c68.5-71.5,35-214,8.5-309c-67.5-244-6.5-562.5,95.5-789c123-274,407.5-582.5,229-899c-101.5-180-179.5-376.5-307-540.5   c-154.5-198-273.5-180.5-493-249.5C-933-1363.609-1076-1467.609-1162-1599.609z"></path>
	<path fill="#2F2F2F" d="M-575-1968.609c45.5,45,88.5,91.5,134.5,136.5c44,43,101,84.5,111,150c16,105.5-23.5,213-60.5,310.5   c-5,14.5-14.5,29-18,44c37,18.5,83-29,108-49c56.5-45,93-108.5,115-176c20-60,13-139,43-194c11-20,29.5-35.5,43-54   c47.5-67.5,76-143.5,111.5-217c14-28.5,23.5-61.5,31-92c3.5-15,10-46,1.5-61c-7.5-13.5-31.5-17-45-21c-7.5-2.5-82-26-85-14.5   c-7,26.5-12.5,53-22.5,78c-5.5,13.5-8.5,27.5-12.5,41.5c-19,62.5-57.5,179-116,216.5c-16,10.5-30-5.5-41.5-17   c-21.5-20-39.5-42.5-58.5-64c-36.5-42.5-72.5-88.5-113.5-127c-16-15-30-32-45-48c-11.5-12.5-18.5-24.5-38.5-22.5   c-12.5,1.5-26,15.5-36.5,22.5c-22.5,15.5-46.5,28.5-66,49c-6,6-16,13.5-19.5,21c-5.5,11.5-3.5,6.5,5,15   C-624.5-2017.609-600-1993.109-575-1968.609z"></path>
	<path fill="#FCC21B" d="M-885.5-2997.609c-90,39-173,92.5-244.5,161.5c-85,82-180.5,196-230,304c-49,106-74.5,225.5-74.5,342.5   c0,63.5,3,232.5,67.5,271.5c34,21,94.5,9,130-1.5c66.5-20.5,131-45.5,200-60c50.5-10.5,100.5-26,149.5-41.5   c77-24,136-37.5,211.5,0.5c26,13,51,18.5,78,27.5c44,16,112.5,35,150-6c13-14,17-40.5,19-60c2-25-10.5-51-4.5-74.5   c15-61,150-55,199-55c68,0,136,40.5,196,69c70,33.5,167.5,95,247.5,86.5c132-13.5,111.5-278,96-369c-11-65.5-28.5-130-48.5-193   c-35-107-96.5-199-182-272C-184-3086.609-575-3130.609-885.5-2997.609z"></path>
	<path fill="#ED6C30" d="M-1870.5-327.609c1-79.5,29.5-170.5,55.5-220.5c16.5-31,48.5-63.5,80.5-82.5c91-54.5,202.5-29.5,302-39.5   c87-8.5,197-28.5,271.5-74c92-56,192-100.5,280-163.5c163.5-117.5,302.5-259.5,453.5-386.5c143.5-121,241-287.5,426.5-333   c83.5-20.5,140-20,214,29.5c86.5,58,170.5,77.5,157,194.5c-14.5,122.5-41,209-118.5,307.5c-139.5,178.5-332,306.5-512,440   c-244,181.5-771,610.5-1101,521.5c-82-22-120.5-137-218.5-122.5c-55,8-76,75.5-138,84.5c-45,6-101.5-7.5-127.5-47   C-1864.5-247.609-1871-286.109-1870.5-327.609z"></path>
</g>
</svg>