<svg xmlns="http://www.w3.org/2000/svg" xmlns:xlink="http://www.w3.org/1999/xlink" version="1.1" x="0px" y="0px" viewBox="-2695.697 -2753.245 5521.361 5636.159" enable-background="new -2695.697 -2753.245 5521.361 5636.159" xml:space="preserve" style="display: inline; opacity: 1;">
<path fill="#FCC21B" d="M2799.804-709.896c-48.5-99.5-140-180.5-245.5-215.5c-55.5-18.5-114.5-24-171-11.5  c-70.5,16-178.5,71-223.5,129.5c-68,88.5-12,205-63.5,296.5c-59,105-175,128.5-280.5,94.5c-152.5-50-337-157-422.5-297.5  c-76.5-126.5-165.5-214-84.5-313.5c51.5-63,285-152.5,406.5-400c249-506.5,63-1027-335.5-1218c-570.5-273-1083.5,15.5-1223,384  c-159.5,420.5,15.5,560.5-92,746c-34,59-134.5,17-204,5c-42.5-7.5-488-181.5-1020-67.5c-343,73.5-655.5,266.5-736.5,609  c-29,122-59.5,264.5-10,385.5c72.5,178,276,270.5,455,197c135-55.5,198-139.5,212-269c9-84.5-14.5-159.5,26.5-196  c101-90,371.5-53,529-7.5c137,39.5,167,223.5,120.5,382.5c-45.5,156-133.5,296-223.5,430c-89.5,132-176,267-272,394.5  c-135.5,180-378.5,511-644,393.5c-54.5-24.5-113.5-69-156-111c-41-41.5-61.5-99-106.5-137c-52-44-121.5-74.5-191-65  c-148.5,19.5-281.5,82.5-390,194c-112.5,116-178.5,276-138,435c17.5,69.5,58.5,128.5,126.5,154.5c71.5,27,163,21.5,236,2  c63-16.5,116-36.5,179-2c64,35,110,96,170.5,136.5c122,81.5,262.5,150,409.5,168c260,31,503-98.5,721.5-222.5  c100-57,256-135,364-45.5c67.5,55.5,78,159.5,83.5,239.5c22,321,53.5,680.5,122,995.5c33,151.5,130.5,304,281.5,356  c144,49.5,365,63.5,507.5,5c148-61,285.5-175.5,233-351c-32-107-102.5-174.5-202-224c-56-28-76-48.5-92.5-110  c-25.5-97.5-26-208-34-308.5c-10.5-122-8-244.5-8-367c0-99.5,9.5-200.5,20-294c31.5-286.5,153-543,302.5-785.5  c55.5-90,109-180,174-264c52-67,120.5-91.5,193-90.5c99,1,206,50,289,102c215,135,492.5,140,743.5,60c300.5-95.5,547-323.5,659-619  C2828.304-491.896,2840.804-625.896,2799.804-709.896z" transform="scale(-1,1)"></path>
</svg>