<svg xmlns="http://www.w3.org/2000/svg" xmlns:xlink="http://www.w3.org/1999/xlink" version="1.1" x="0px" y="0px" viewBox="-3095.913 -3065.451 6319.824 6256.022" enable-background="new -3095.913 -3065.451 6319.824 6256.022" xml:space="preserve" style="display: inline; opacity: 1;">
<g>
	<g>
		<g>
			<path fill="#FCC21B" d="M-2980.952,2133.571c0,584,1205.5,1057,2692.5,1057s2692.5-473,2692.5-1057     c198.5-1749-874-4323-3888.5-3689.5c-1341.5,281.5-1913.5,1622-1456,2853     C-2754.452,1799.071-2980.952,1857.071-2980.952,2133.571z"></path>
			<path fill="#2F2F2F" d="M-105.452,1091.071c354.5-31,493.5-295,499.5-306c27.5-54,6.5-120.5-48-147.5c-54-28.5-119.5-7-148,46     c-5,9-95,168-323,188c-233,19-351-126-352.5-127.5c-36.5-48-106-57-154.5-20c-48,37.5-57,106.5-20,154.5     c7,9,169.5,215.5,481.5,215.5C-149.452,1094.071-127.452,1093.071-105.452,1091.071z"></path>
			<path fill="#2F2F2F" d="M-2391.452,1047.571c6.5,9.5,165.5,210.5,469.5,210.5c20.5,0,41.5-0.5,63-3c345.5-30,481-287,487-297.5     c28-54.5,6.5-121-47.5-148.5c-53.5-28-119.5-7-148,46c-4,8-91,161.5-310.5,181c-222.5,19-338-121-339-122.5     c-37-48.5-106.5-57-154.5-20.5C-2419.952,930.571-2428.952,999.571-2391.452,1047.571z"></path>
		</g>
		<g>
			<path fill="#D7598B" d="M1725.548-643.429c-19-9.5-39.5-16.5-60-23.5c-24-9.5-48-18.5-72.5-25.5c-38-12-76-22.5-113.5-34.5     c-45.5-14.5-91.5-29.5-137-44.5c-87.5-28.5-197.5-95.5-253,29c-12,26-25,61.5-23,89c2.5,45.5,34,65.5,73.5,82     c40.5,16.5,82.5,30.5,124,44c14,4.5,28,8.5,42,12.5c8,3,22,5,21,15c-1,7.5-10,14-16,18.5c-10,7.5-20.5,14.5-31,22l-15,10     c-31,20.5-62,41-92.5,60.5c-24.5,16-49,32.5-72.5,49.5c-10,6.5-20,13-30,19.5c-33,21-61,44.5-91.5,68.5l-11.5,10     c-28,25.5-57.5,54-60.5,92.5c-4,49.5,34.5,73,78.5,94c15.5,7.5,31.5,13.5,48.5,18.5l1.5,0.5c54,23,114.5,38.5,172.5,57     c46,14.5,91.5,29.5,137,44c87.5,28.5,197.5,95.5,253-28.5c12-26,25.5-61.5,23.5-89.5c-2.5-45.5-34-65.5-73.5-82     c-40.5-16.5-82-30.5-124-44c-9.5-3-18.5-5.5-27.5-8.5c-6-2-18.5-3.5-22.5-8c-11-11,9.5-20,16.5-24.5c22.5-13.5,44.5-27.5,66.5-42     c23-15,46-29.5,67.5-47c11.5-7.5,23-14.5,34.5-22c24.5-16.5,50-32,73-51.5c58.5-49,196-107,150-203     C1771.048-604.429,1747.048-632.429,1725.548-643.429z"></path>
			<path fill="#D7598B" d="M2496.548-1497.429c-20-12.5-41.5-22.5-62.5-33c-26-12.5-51-25-77-36c-40-16.5-80-32.5-120-50     c-47.5-21-96-42.5-144-63.5c-93-40.5-205-126-280,3.5c-15.5,27-33.5,64-35.5,94.5c-2,50,30,75.5,71.5,97.5     c42.5,22.5,86.5,42.5,130,62c14.5,6.5,30,12.5,44,19c9,3.5,23.5,7.5,21,18.5c-1,8-12,14-18.5,18c-12.5,7-24.5,14-37,20.5     c-6,3-12,6.5-18,9.5c-35.5,19-72,37.5-107.5,55.5c-28.5,14.5-57,30-84.5,46c-11.5,6-23,12.5-34.5,18c-38.5,19.5-71.5,42-107.5,65     c-5,3.5-9.5,6.5-14,10c-33.5,24.5-68.5,52.5-76.5,94.5c-9.5,54,30,83.5,75.5,111c16.5,10,33,18,51,25.5l1.5,1     c56,31,120.5,54.5,182,81c48.5,21,96.5,42.5,144.5,63.5c92.5,40.5,205.5,126,280-3.5c15.5-26.5,33.5-64.5,35-94.5     c2-50-29.5-75.5-71-97.5c-42.5-22.5-86-42.5-130-62c-10-4-19.5-8-29.5-12.5c-6.5-3-19-5.5-23.5-11c-11-13,13-21,21-25     c26-12.5,51.5-25.5,77-38.5c26.5-14,53.5-27,79-43.5c13-6.5,27-13,40-20.5c29-15,58.5-29,86-48c69-47,225-95.5,185.5-205     C2542.548-1450.929,2519.048-1483.929,2496.548-1497.429z"></path>
			<path fill="#D7598B" d="M3213.048-2685.429c-12.5-30-46-72-76.5-89c-27.5-15.5-56.5-27.5-85.5-40c-34.5-14.5-69.5-30-104.5-43     c-54-19.5-108.5-38-162.5-58c-65-24.5-130.5-50-196.5-74.5c-125.5-48-280.5-154-371,23c-19,37-40.5,87.5-40.5,128     c0,66.5,44,98.5,101,125c58,27,117.5,50.5,177.5,73.5c20,7.5,40,15,60,22c11.5,4.5,31.5,8.5,29.5,23c-1.5,11-15,19.5-24,25.5     c-15.5,10.5-31.5,20-47.5,30c-7,4.5-15,9-22.5,13.5c-46.5,27.5-93,55-139,81c-37,21-74,43.5-110,66.5c-14.5,8.5-30,18-45,26.5     c-49.5,28.5-92.5,60.5-139,93.5c-6,4.5-11.5,9-17.5,14c-43,34.5-87.5,74.5-94.5,130c-10,72,45,109,107.5,143     c22,12,44.5,21.5,68.5,30l2.5,1c76.5,37.5,163.5,64,247,95.5c65.5,24.5,131,50,196.5,74.5c126,48,281,154,371.5-23     c19-36.5,40.5-87.5,40-128c0-66.5-44-98.5-101-125c-58-27-117.5-50.5-177.5-73.5c-13.5-5-26.5-9.5-39.5-14.5     c-9-3.5-26-6.5-32-13.5c-15-16.5,15.5-29,26-34.5c33.5-18,66.5-37,99.5-56.5c34.5-20,69.5-39.5,102-63c17.5-10,35-19.5,52.5-30     c37-22,75.5-43,110.5-69C3069.048-2467.929,3273.047-2542.429,3213.048-2685.429z"></path>
		</g>
		<path fill="#FFFFFF" d="M-411.952,2238.071c183.5,0,189.5,249.5,195,321.5c7.5,93.5,10,195.5,38.5,279.5c33.5,98,122,141,185,99.5    c171-112,30-421,175-726L-411.952,2238.071z"></path>
		<path fill="#ED6C30" d="M185.548,2083.571c-66.5-116.5-156.5-190-227.5-256c-167.5-155.5-304-195.5-476.5-195    c-244,0-468.5,100.5-636,493.5c-59,136.5,72.5,127,72.5,127s1044.5,0,1170,0C213.548,2253.071,229.048,2162.071,185.548,2083.571z    "></path>
	</g>
</g>
</svg>